<svg width="393" height="827" viewBox="0 0 393 827" fill="none" xmlns="http://www.w3.org/2000/svg">
<path d="M390.5 4.00098C390.5 4.00098 -5.50022 116.501 3.99978 413.751C13.4998 711.001 390.5 823.501 390.5 823.501M390.5 25.5C390.5 25.5 22 126.002 27.5 413.751C33 701.5 390.5 799.5 390.5 799.5M390.5 48.5C390.5 48.5 42.5 146.002 53.5 413.751C64.5 681.5 390.5 775 390.5 775M390.5 72C390.5 72 67 158.002 79 413.751C91 669.5 390.5 746 390.5 746M390.5 96.5C390.5 96.5 93.9444 167.502 105 413.751C116.056 660 390.5 718 390.5 718M390.5 120C390.5 120 108.5 187.502 126 413.751C143.5 640 390.5 690 390.5 690M390.5 141C390.5 141 136 208.502 149 413.751C162 619 390.5 661 390.5 661M390.5 160.5C390.5 160.5 158.535 227.002 170.5 413.751C182.465 600.5 390.5 639.5 390.5 639.5M390.5 185.5C390.5 185.5 184.5 235.337 196.5 413.751C208.5 592.165 390.5 617.5 390.5 617.5M390.5 209.5C390.5 209.5 211 258.502 218.5 413.751C226 569 390.5 598 390.5 598M390.5 232.5C390.5 232.5 227.5 289.002 238.5 413.751C249.5 538.5 390.5 575 390.5 575M390.5 254.5C390.5 254.5 252 306.002 262 413.751C272 521.5 390.5 551.5 390.5 551.5M390.5 276.5C390.5 276.5 277.5 317.002 284.5 413.751C291.5 510.5 390.5 529.5 390.5 529.5M390.5 299.5C390.5 299.5 298.5 344.502 303 413.751C307.5 483 390.5 507 390.5 507M390.5 321.5C390.5 321.5 316.5 362.502 324 413.751C331.5 465 390.5 486 390.5 486" stroke="#B5815E" stroke-width="7"/>
</svg>
