<?xml version="1.0" encoding="UTF-8"?>
<svg version="1.1" xmlns="http://www.w3.org/2000/svg" width="612" height="612">
<rect width="100%" height="100%" fill="white"/>
<path d="M0 0 C201.96 0 403.92 0 612 0 C612 201.96 612 403.92 612 612 C410.04 612 208.08 612 0 612 C0 410.04 0 208.08 0 0 Z " fill="#FEFEFE" transform="translate(0,0)"/>
<path d="M0 0 C21 0 21 0 26 4 C28.43605097 8.82140706 29.11071311 14.24998733 29.60546875 19.578125 C30.09704698 29.36514081 30.09704698 29.36514081 34.64990234 37.53857422 C38.56280419 39.76712081 42.69429569 40.7364932 47.09277344 41.54052734 C49 42 49 42 52.1328125 43.67578125 C55.67584767 45.31214218 57.2987826 45.11631892 61 44 C63.40270969 42.68838111 63.40270969 42.68838111 65.625 40.9375 C66.4809375 40.31617188 67.336875 39.69484375 68.21875 39.0546875 C70.15669759 37.6230015 72.09416066 36.19065951 74.03125 34.7578125 C82.88809311 28.47303241 82.88809311 28.47303241 87.25 28.0625 C96.32761794 30.33190449 103.53096251 40.3793241 109.9375 46.8125 C110.90412902 47.77555913 111.8709249 48.73845081 112.83789062 49.70117188 C114.20010742 51.06532227 114.20010742 51.06532227 115.58984375 52.45703125 C116.41347412 53.28178955 117.23710449 54.10654785 118.08569336 54.95629883 C120.89897089 57.9597354 120.99446455 58.65126651 121.0625 62.9375 C120.38313748 68.45180617 117.55670983 71.86113389 114.20703125 76.15234375 C112.00019105 78.99975349 110.01073156 81.90826211 108.0625 84.9375 C107.49660156 85.81277344 106.93070312 86.68804687 106.34765625 87.58984375 C104.57502157 90.62924768 104.57502157 90.62924768 104 94 C105.01260921 96.54457959 106.06938625 98.88638439 107.3125 101.3125 C109.75208912 106.15745554 111.65761355 110.73266636 113 116 C114.7701642 116.41950031 116.54120489 116.83530077 118.3125 117.25 C120.07013672 117.66572266 120.07013672 117.66572266 121.86328125 118.08984375 C124.86898731 118.77595296 127.88126889 119.34717463 130.91796875 119.87890625 C131.7586792 120.03391602 132.59938965 120.18892578 133.46557617 120.34863281 C135.12761948 120.65283109 136.79327502 120.93803961 138.4621582 121.20214844 C139.237771 121.34813477 140.01338379 121.49412109 140.8125 121.64453125 C141.49957031 121.76159424 142.18664062 121.87865723 142.89453125 121.99926758 C146.19733951 123.56909725 148.27074931 125.8465635 150 129 C150.68214194 131.98410399 150.67926772 134.85495336 150.62890625 137.90625 C150.63131821 138.74917603 150.63373016 139.59210205 150.63621521 140.46057129 C150.63523947 142.23564375 150.62191102 144.01074768 150.59692383 145.78564453 C150.56259804 148.49226957 150.57628165 151.19562868 150.59570312 153.90234375 C150.58880418 155.6328263 150.57913136 157.36330048 150.56640625 159.09375 C150.57136612 159.89703735 150.57632599 160.70032471 150.58143616 161.5279541 C150.47240814 166.76712323 149.55427933 169.90111019 146 174 C144.07568359 175.16748047 144.07568359 175.16748047 142.0234375 175.7421875 C141.23678711 175.96358398 140.45013672 176.18498047 139.63964844 176.41308594 C133.60498326 177.75486684 127.47756637 178.72966225 121.35546875 179.578125 C118.31920819 180.11638842 115.77546835 180.6516506 113 182 C111.13690449 184.84307236 110.65785321 187.70381644 110 191 C108.44137446 194.36959998 106.78870839 197.67368917 105.109375 200.984375 C103.84509656 204.42107554 103.70696781 205.6077536 105 209 C106.5024726 211.34283863 108.01918625 213.53414797 109.6875 215.75 C110.59561237 216.99568549 111.50316515 218.24177912 112.41015625 219.48828125 C113.92996078 221.55510467 115.45919533 223.61375815 116.99609375 225.66796875 C119.41139422 229.03317157 120.88322995 231.48800823 121.8125 235.5625 C119.73385998 244.35674623 109.49833586 251.68485345 103.3125 257.875 C102.36643728 258.83323543 101.42047317 259.79156822 100.47460938 260.75 C99.57162109 261.65492188 98.66863281 262.55984375 97.73828125 263.4921875 C96.92399658 264.31058105 96.10971191 265.12897461 95.27075195 265.97216797 C92.22617727 268.69104092 90.3222798 270.03883619 86.20703125 269.91796875 C82.09964372 268.74228535 79.15143349 266.75786418 75.6875 264.3125 C75.02886963 263.86350342 74.37023926 263.41450684 73.69165039 262.9519043 C70.83705702 261.00222929 68.02068021 259.01518885 65.234375 256.96875 C64.47640625 256.4221875 63.7184375 255.875625 62.9375 255.3125 C62.30714844 254.83425781 61.67679687 254.35601562 61.02734375 253.86328125 C56.95569808 252.12949764 53.27683157 253.89952039 49.30859375 255.33984375 C48.01568721 255.86619454 46.72533403 256.39885728 45.4375 256.9375 C44.46780273 257.33485352 44.46780273 257.33485352 43.47851562 257.74023438 C41.6507319 258.48956992 39.82529995 259.24463438 38 260 C37.13584473 260.22461914 36.27168945 260.44923828 35.38134766 260.68066406 C32.70492626 261.82294788 32.70492626 261.82294788 31.94506836 264.90161133 C31.74534424 266.1161499 31.54562012 267.33068848 31.33984375 268.58203125 C31.22322891 269.23322433 31.10661407 269.88441742 30.98646545 270.55534363 C30.61550806 272.63802869 30.27415047 274.72401581 29.9375 276.8125 C29.59481309 278.88960232 29.24545903 280.96468253 28.87782288 283.03752136 C28.54395664 284.92558294 28.23410812 286.81784488 27.92553711 288.71020508 C26.90498958 292.33771178 25.5854 294.29144128 23 297 C16.4340948 300.2829526 8.34090518 298 1 298 C1 275.89 1 253.78 1 231 C7.27 230.01 13.54 229.02 20 228 C43.28202373 220.41178486 60.98387508 208.24874476 72.625 186.3125 C82.16157859 166.35515672 84.37280106 143.10930567 77.31591797 121.94873047 C69.97259229 101.80311426 55.06781079 85.24674784 35.8125 75.75 C24.04540792 70.62719716 12.88210703 68.99093131 0 68 C0 45.56 0 23.12 0 0 Z " fill="#251F21" transform="translate(327,148)"/>
<path d="M0 0 C1.54204102 -0.0309375 1.54204102 -0.0309375 3.11523438 -0.0625 C4.09685547 -0.06765625 5.07847656 -0.0728125 6.08984375 -0.078125 C7.44710571 -0.09214355 7.44710571 -0.09214355 8.83178711 -0.10644531 C9.56792236 0.01118164 10.30405762 0.12880859 11.0625 0.25 C13.02229369 3.18969054 13.54570069 4.80022586 14.1875 8.1875 C14.35507812 9.04214844 14.52265625 9.89679688 14.6953125 10.77734375 C15.0625 13.25 15.0625 13.25 15.0625 17.25 C22.41609004 20.24619031 22.41609004 20.24619031 30.0625 19.25 C32.3812063 17.7165953 34.61747702 16.13081992 36.81640625 14.4296875 C39.0625 13.25 39.0625 13.25 41.41015625 13.1796875 C45.38831831 14.78501357 47.95119169 17.4806573 50.9375 20.5 C51.54335938 21.07363281 52.14921875 21.64726562 52.7734375 22.23828125 C57.03989652 26.49504377 57.03989652 26.49504377 57.140625 29.859375 C55.53343268 33.42314927 53.43115133 36.52203491 51.2421875 39.75 C49.80717238 42.79109163 50.06140986 44.0947316 51.0625 47.25 C51.413125 48.11625 51.76375 48.9825 52.125 49.875 C53.0625 52.25 53.0625 52.25 53.0625 55.25 C53.63097656 55.29898438 54.19945312 55.34796875 54.78515625 55.3984375 C67.43588262 56.62338262 67.43588262 56.62338262 70.0625 59.25 C70.31406269 62.88899175 70.24772226 66.54083673 70.25 70.1875 C70.26224609 71.21552734 70.27449219 72.24355469 70.28710938 73.30273438 C70.28904297 74.28435547 70.29097656 75.26597656 70.29296875 76.27734375 C70.29707764 77.18218506 70.30118652 78.08702637 70.30541992 79.01928711 C70.0625 81.25 70.0625 81.25 68.0625 83.25 C65.6015625 83.8828125 65.6015625 83.8828125 62.6875 84.375 C61.73101562 84.54257812 60.77453125 84.71015625 59.7890625 84.8828125 C57.0625 85.25 57.0625 85.25 53.0625 85.25 C52.52717177 86.80759343 52.00984622 88.37138045 51.5 89.9375 C51.20996094 90.80761719 50.91992188 91.67773438 50.62109375 92.57421875 C49.78397052 96.58421466 50.32090884 99.07948855 52.5078125 102.53125 C53.62950446 104.01292682 54.75452125 105.49209233 55.8828125 106.96875 C57.0625 109.25 57.0625 109.25 57.1328125 111.6015625 C55.52632222 115.57674648 52.83027243 118.14024477 49.8125 121.125 C49.23886719 121.73085938 48.66523438 122.33671875 48.07421875 122.9609375 C43.81745623 127.22739652 43.81745623 127.22739652 40.453125 127.328125 C36.88935073 125.72093268 33.79046509 123.61865133 30.5625 121.4296875 C27.49330333 119.98141032 26.25897264 120.27936999 23.0625 121.25 C21.95455078 121.51490234 21.95455078 121.51490234 20.82421875 121.78515625 C19.79748047 122.04619141 19.79748047 122.04619141 18.75 122.3125 C17.533125 122.621875 16.31625 122.93125 15.0625 123.25 C14.876875 124.7040625 14.876875 124.7040625 14.6875 126.1875 C14.25587642 129.1663106 13.7309083 132.11406432 13.125 135.0625 C12.97160156 135.81144531 12.81820312 136.56039062 12.66015625 137.33203125 C12.0625 139.25 12.0625 139.25 10.0625 141.25 C8.13891602 141.50878906 8.13891602 141.50878906 5.81640625 141.515625 C4.56053711 141.51949219 4.56053711 141.51949219 3.27929688 141.5234375 C1.96541992 141.51183594 1.96541992 141.51183594 0.625 141.5 C-0.24705078 141.50773438 -1.11910156 141.51546875 -2.01757812 141.5234375 C-3.27538086 141.51957031 -3.27538086 141.51957031 -4.55859375 141.515625 C-5.3261499 141.51336914 -6.09370605 141.51111328 -6.88452148 141.50878906 C-8.9375 141.25 -8.9375 141.25 -11.9375 139.25 C-12.88671875 136.5703125 -12.88671875 136.5703125 -13.625 133.375 C-13.87636719 132.32570313 -14.12773437 131.27640625 -14.38671875 130.1953125 C-14.9375 127.25 -14.9375 127.25 -14.9375 123.25 C-15.659375 123.12625 -16.38125 123.0025 -17.125 122.875 C-19.9375 122.25 -19.9375 122.25 -22.4375 121.125 C-25.49464558 120.05499905 -26.84443315 120.36626661 -29.9375 121.25 C-32.28655627 122.73827195 -34.44745539 124.38260676 -36.65625 126.0703125 C-38.9375 127.25 -38.9375 127.25 -41.2890625 127.3203125 C-45.26424648 125.71382222 -47.82774477 123.01777243 -50.8125 120 C-51.41835937 119.42636719 -52.02421875 118.85273438 -52.6484375 118.26171875 C-56.91520614 114.00464732 -56.91520614 114.00464732 -57.015625 110.60546875 C-55.85284643 108.06505036 -54.51150721 106.02911173 -52.8125 103.8125 C-50.32208511 100.273915 -50.32208511 100.273915 -49.9375 96 C-50.88554647 93.39287222 -51.89532324 90.82070268 -52.9375 88.25 C-52.9375 87.26 -52.9375 86.27 -52.9375 85.25 C-53.50597656 85.20101562 -54.07445312 85.15203125 -54.66015625 85.1015625 C-67.31088262 83.87661738 -67.31088262 83.87661738 -69.9375 81.25 C-70.18906269 77.61100825 -70.12272226 73.95916327 -70.125 70.3125 C-70.13724609 69.28447266 -70.14949219 68.25644531 -70.16210938 67.19726562 C-70.16404297 66.21564453 -70.16597656 65.23402344 -70.16796875 64.22265625 C-70.17207764 63.31781494 -70.17618652 62.41297363 -70.18041992 61.48071289 C-69.9375 59.25 -69.9375 59.25 -67.9375 57.25 C-65.4765625 56.6171875 -65.4765625 56.6171875 -62.5625 56.125 C-61.12777344 55.87363281 -61.12777344 55.87363281 -59.6640625 55.6171875 C-56.9375 55.25 -56.9375 55.25 -52.9375 55.25 C-52.40217177 53.69240657 -51.88484622 52.12861955 -51.375 50.5625 C-51.08496094 49.69238281 -50.79492188 48.82226562 -50.49609375 47.92578125 C-49.65897052 43.91578534 -50.19590884 41.42051145 -52.3828125 37.96875 C-53.50450446 36.48707318 -54.62952125 35.00790767 -55.7578125 33.53125 C-56.9375 31.25 -56.9375 31.25 -57.0078125 28.8984375 C-55.40132222 24.92325352 -52.70527243 22.35975523 -49.6875 19.375 C-49.11386719 18.76914063 -48.54023438 18.16328125 -47.94921875 17.5390625 C-43.69214732 13.27229386 -43.69214732 13.27229386 -40.29296875 13.171875 C-37.75255036 14.33465357 -35.71661173 15.67599279 -33.5 17.375 C-30.03248906 19.82728823 -30.03248906 19.82728823 -25.875 20.25 C-24.905625 19.92 -23.93625 19.59 -22.9375 19.25 C-21.48142876 18.88664525 -20.02295991 18.53279262 -18.5625 18.1875 C-16.768125 17.7234375 -16.768125 17.7234375 -14.9375 17.25 C-14.88851562 16.59773438 -14.83953125 15.94546875 -14.7890625 15.2734375 C-13.69240786 2.45392291 -12.673567 0.06332825 0 0 Z " fill="#262122" transform="translate(304.9375,226.75)"/>
<path d="M0 0 C1.75642615 3.0491558 2.32028956 5.36258979 2.375 8.875 C2.40335938 9.69742188 2.43171875 10.51984375 2.4609375 11.3671875 C1.80505495 15.11349968 0.50887192 17.15121641 -2 20 C-5.2578125 20.8828125 -5.2578125 20.8828125 -9.125 21.125 C-10.56963898 21.25353783 -12.01365568 21.38922631 -13.45703125 21.53125 C-14.57972412 21.63759766 -14.57972412 21.63759766 -15.72509766 21.74609375 C-42.62190703 24.74809866 -67.08575614 38.03343458 -86 57 C-86.81855469 57.75925781 -87.63710937 58.51851562 -88.48046875 59.30078125 C-94.71567453 65.17110408 -99.40112509 71.83588111 -104 79 C-104.94552734 80.47146484 -104.94552734 80.47146484 -105.91015625 81.97265625 C-123.66807019 110.97074429 -127.16146901 145.64042851 -119.58203125 178.39453125 C-117.90305499 184.79701225 -115.49458256 190.87758809 -113 197 C-112.55906006 198.08547119 -112.11812012 199.17094238 -111.66381836 200.28930664 C-110.31427638 203.57549883 -108.94185705 206.85122189 -107.5625 210.125 C-107.11068359 211.21425781 -106.65886719 212.30351562 -106.19335938 213.42578125 C-103.58689211 219.61475458 -100.73379293 225.52583544 -97.44897461 231.38232422 C-96.05998338 233.89163575 -94.76666934 236.42714913 -93.5 239 C-88.92651551 248.1970071 -84.07564891 256.65389136 -77.8125 264.8125 C-65.77162786 280.53789526 -59.57010347 297.37863504 -55.25 316.625 C-55.03899658 317.55449463 -54.82799316 318.48398926 -54.6105957 319.44165039 C-53.51243893 324.58185324 -52.80952504 329.61503537 -52.43652344 334.86083984 C-52.35287537 336.01530609 -52.26922729 337.16977234 -52.18304443 338.35922241 C-52.12263977 339.23067902 -52.06223511 340.10213562 -52 341 C-50.10532738 340.99666908 -50.10532738 340.99666908 -48.17237854 340.99327087 C-36.29676161 340.97304164 -24.42114814 340.95802892 -12.54551792 340.94818783 C-6.43943631 340.94295844 -0.33336856 340.9358598 5.77270508 340.92456055 C11.66005147 340.91373363 17.54738449 340.90772358 23.43474007 340.90512276 C25.68632277 340.90326815 27.93790469 340.89964687 30.18948174 340.89426994 C33.33133427 340.88706211 36.47313083 340.88600895 39.61499023 340.88647461 C41.02623421 340.8810817 41.02623421 340.8810817 42.46598816 340.87557983 C48.88594784 340.88594784 48.88594784 340.88594784 50 342 C50.2734375 344.22265625 50.2734375 344.22265625 50.375 347.0625 C50.42398438 347.98160156 50.47296875 348.90070313 50.5234375 349.84765625 C49.77687017 354.34377441 48.24076395 357.74062288 45 361 C41.57875626 362.17657678 38.29589729 362.06468998 34.70532227 361.98754883 C33.67059784 361.9967485 32.63587341 362.00594818 31.5697937 362.01542664 C28.15079698 362.03533719 24.73518176 361.99744223 21.31640625 361.95703125 C18.93896074 361.95480149 16.56151107 361.95538516 14.18406677 361.95866394 C9.20126386 361.95692037 4.21961185 361.92778825 -0.76293945 361.87817383 C-7.14676134 361.81584056 -13.52900986 361.81089154 -19.91306973 361.8251543 C-24.8228427 361.83156916 -29.73226062 361.81280013 -34.64195442 361.78589439 C-36.99544239 361.77502077 -39.3489704 361.77073711 -41.70248222 361.77317238 C-44.99437835 361.77174361 -48.28434799 361.73770812 -51.57592773 361.69458008 C-52.54702988 361.6999881 -53.51813202 361.70539612 -54.5186615 361.71096802 C-58.97011078 361.61992469 -62.04123198 361.44260476 -65.57675171 358.57794189 C-70.63690811 353.19475882 -71.40297016 346.67351004 -72.3125 339.5625 C-75.53792429 317.19146094 -80.22585649 294.01874709 -94.875 276.1875 C-110.30070826 257.2243173 -120.67668062 233.03722989 -129.93457031 210.578125 C-130.93468676 208.15804487 -131.96131446 205.75084371 -132.9921875 203.34375 C-147.36932699 169.00066425 -148.60524309 128.88308053 -134.87255859 94.08496094 C-132.2713908 87.86952363 -129.21625628 81.91532562 -126 76 C-125.16855469 74.42992187 -125.16855469 74.42992187 -124.3203125 72.828125 C-118.62907151 62.53487574 -111.37684813 53.23769783 -103 45 C-101.98445019 43.82577053 -100.98201744 42.6399134 -100 41.4375 C-97.57210109 38.57157809 -95.10342769 36.15515812 -92 34 C-91.34 34 -90.68 34 -90 34 C-90 33.34 -90 32.68 -90 32 C-88.58569336 30.79833984 -88.58569336 30.79833984 -86.58984375 29.4609375 C-85.85467529 28.9666626 -85.11950684 28.4723877 -84.36206055 27.96313477 C-83.56195557 27.43905029 -82.76185059 26.91496582 -81.9375 26.375 C-81.12128174 25.83738037 -80.30506348 25.29976074 -79.46411133 24.74584961 C-55.63821937 9.25496585 -28.70638683 -0.84568734 0 0 Z " fill="#262123" transform="translate(298,130)"/>
<path d="M0 0 C6.97829017 4.28146153 12.85879943 8.862754 17 16 C17.41121094 16.6909375 17.82242188 17.381875 18.24609375 18.09375 C22.62541804 26.94331881 22.39767098 38.0195809 20.1875 47.4765625 C16.48555351 57.4255437 10.06596961 64.75639576 0.625 69.5625 C-8.64222337 73.78902435 -19.20980624 74.60013113 -29.19921875 72.24609375 C-31.59269133 71.31142988 -33.77382474 70.27905497 -36 69 C-37.051875 68.401875 -38.10375 67.80375 -39.1875 67.1875 C-47.52883817 60.69979253 -51.64952904 54.05141289 -55 44 C-55.14961464 41.09114618 -55.23118311 38.22206142 -55.25 35.3125 C-55.270625 34.53455078 -55.29125 33.75660156 -55.3125 32.95507812 C-55.38092896 22.69928795 -51.02265611 14.60694721 -44.25390625 7.05078125 C-33.19038985 -3.55271368 -13.9356438 -7.70195471 0 0 Z " fill="#FDFCFC" transform="translate(322,262)"/>
<path d="M0 0 C35.97 0 71.94 0 109 0 C106.76149568 8.9540173 100.41534854 13.90312119 93 19 C84.04455922 23.60845675 76.32593218 25.15553651 66.38671875 25.16796875 C65.45833694 25.17129715 64.52995514 25.17462555 63.57344055 25.17805481 C61.61252333 25.18310784 59.65159755 25.18546364 57.69067383 25.18530273 C54.70834996 25.18748475 51.7263989 25.20564547 48.74414062 25.22460938 C46.83333459 25.22754462 44.92252681 25.22952854 43.01171875 25.23046875 C42.1281218 25.23765427 41.24452484 25.24483978 40.33415222 25.25224304 C28.23105887 25.20813151 16.4969102 20.98975175 7.53515625 12.64453125 C0 4.57251908 0 4.57251908 0 0 Z " fill="#040404" transform="translate(247,556)"/>
<path d="M0 0 C1.72900291 -0.00422974 1.72900291 -0.00422974 3.49293518 -0.00854492 C4.76882004 -0.00652069 6.0447049 -0.00449646 7.35925293 -0.00241089 C8.70751493 -0.00376492 10.05577655 -0.00554486 11.40403748 -0.00772095 C15.07542508 -0.01229509 18.74678471 -0.0105058 22.41817284 -0.00734186 C26.25208998 -0.00481816 30.08600465 -0.00715583 33.91992188 -0.00872803 C40.35950147 -0.01054969 46.79906961 -0.00814349 53.23864746 -0.00338745 C60.69414643 0.00205517 68.14961806 0.00029251 75.60511637 -0.00521386 C81.99491056 -0.00974507 88.3846965 -0.01039549 94.77449179 -0.00777519 C98.59580528 -0.00621246 102.4171059 -0.00601853 106.23841858 -0.00931168 C109.83016305 -0.01219051 113.42187212 -0.01021447 117.01361275 -0.00441742 C118.96837947 -0.00245429 120.92314918 -0.00544363 122.87791443 -0.00854492 C124.60691734 -0.00431519 124.60691734 -0.00431519 126.37084961 0 C127.88294636 0.00056554 127.88294636 0.00056554 129.42559052 0.0011425 C131.6854248 0.12698364 131.6854248 0.12698364 132.6854248 1.12698364 C132.8182373 2.93948364 132.8182373 2.93948364 132.8104248 5.12698364 C132.81300293 5.84885864 132.81558105 6.57073364 132.8182373 7.31448364 C132.6854248 9.12698364 132.6854248 9.12698364 131.6854248 10.12698364 C129.91613523 10.22550831 128.14288016 10.25330453 126.37084961 10.25396729 C125.218181 10.25678711 124.06551239 10.25960693 122.87791443 10.26251221 C121.60202957 10.26048798 120.32614471 10.25846375 119.01159668 10.25637817 C117.66333468 10.2577322 116.31507305 10.25951214 114.96681213 10.26168823 C111.29542453 10.26626237 107.62406489 10.26447309 103.95267677 10.26130915 C100.11875963 10.25878545 96.28484496 10.26112311 92.45092773 10.26269531 C86.01134814 10.26451698 79.57178 10.26211078 73.13220215 10.25735474 C65.67670318 10.25191212 58.22123155 10.25367478 50.76573324 10.25918114 C44.37593905 10.26371236 37.9861531 10.26436278 31.59635782 10.26174247 C27.77504433 10.26017974 23.95374371 10.25998582 20.13243103 10.26327896 C16.54068656 10.2661578 12.94897749 10.26418176 9.35723686 10.2583847 C7.40247014 10.25642158 5.44770043 10.25941091 3.49293518 10.26251221 C2.34026657 10.25969238 1.18759796 10.25687256 0 10.25396729 C-1.0080645 10.25359026 -2.016129 10.25321323 -3.05474091 10.25282478 C-5.3145752 10.12698364 -5.3145752 10.12698364 -6.3145752 9.12698364 C-6.4473877 7.31448364 -6.4473877 7.31448364 -6.4395752 5.12698364 C-6.44215332 4.40510864 -6.44473145 3.68323364 -6.4473877 2.93948364 C-6.16108241 -0.96774142 -3.27242953 0.00122392 0 0 Z " fill="#121212" transform="translate(238.3145751953125,536.8730163574219)"/>
<path d="M0 0 C45.87 0 91.74 0 139 0 C139 2.64 139 5.28 139 8 C137.28364662 9.71635338 135.02853533 9.1261073 132.6854248 9.12698364 C131.5327562 9.12980347 130.38008759 9.13262329 129.19248962 9.13552856 C127.91660477 9.13350433 126.64071991 9.1314801 125.32617188 9.12939453 C123.97790988 9.13074856 122.62964825 9.1325285 121.28138733 9.13470459 C117.60999972 9.13927873 113.93864009 9.13748945 110.26725197 9.1343255 C106.43333483 9.1318018 102.59942016 9.13413947 98.76550293 9.13571167 C92.32592334 9.13753334 85.8863552 9.13512713 79.44677734 9.13037109 C71.99127837 9.12492848 64.53580674 9.12669114 57.08030844 9.1321975 C50.69051424 9.13672871 44.3007283 9.13737914 37.91093302 9.13475883 C34.08961952 9.1331961 30.2683189 9.13300217 26.44700623 9.13629532 C22.85526175 9.13917416 19.26355269 9.13719812 15.67181206 9.13140106 C13.71704533 9.12943793 11.76227563 9.13242727 9.80751038 9.13552856 C8.65484177 9.13270874 7.50217316 9.12988892 6.3145752 9.12698364 C5.3065107 9.12660662 4.2984462 9.12622959 3.25983429 9.12584114 C1 9 1 9 0 8 C0 5.36 0 2.72 0 0 Z " fill="#050505" transform="translate(232,499)"/>
<path d="M0 0 C1.72900291 -0.00422974 1.72900291 -0.00422974 3.49293518 -0.00854492 C4.76882004 -0.00652069 6.0447049 -0.00449646 7.35925293 -0.00241089 C8.70751493 -0.00376492 10.05577655 -0.00554486 11.40403748 -0.00772095 C15.07542508 -0.01229509 18.74678471 -0.0105058 22.41817284 -0.00734186 C26.25208998 -0.00481816 30.08600465 -0.00715583 33.91992188 -0.00872803 C40.35950147 -0.01054969 46.79906961 -0.00814349 53.23864746 -0.00338745 C60.69414643 0.00205517 68.14961806 0.00029251 75.60511637 -0.00521386 C81.99491056 -0.00974507 88.3846965 -0.01039549 94.77449179 -0.00777519 C98.59580528 -0.00621246 102.4171059 -0.00601853 106.23841858 -0.00931168 C109.83016305 -0.01219051 113.42187212 -0.01021447 117.01361275 -0.00441742 C118.96837947 -0.00245429 120.92314918 -0.00544363 122.87791443 -0.00854492 C124.60691734 -0.00431519 124.60691734 -0.00431519 126.37084961 0 C127.88294636 0.00056554 127.88294636 0.00056554 129.42559052 0.0011425 C131.6854248 0.12698364 131.6854248 0.12698364 132.6854248 1.12698364 C132.8104248 4.62698364 132.8104248 4.62698364 132.6854248 8.12698364 C130.96907143 9.84333702 128.71396014 9.25309094 126.37084961 9.25396729 C125.218181 9.25678711 124.06551239 9.25960693 122.87791443 9.26251221 C121.60202957 9.26048798 120.32614471 9.25846375 119.01159668 9.25637817 C117.66333468 9.2577322 116.31507305 9.25951214 114.96681213 9.26168823 C111.29542453 9.26626237 107.62406489 9.26447309 103.95267677 9.26130915 C100.11875963 9.25878545 96.28484496 9.26112311 92.45092773 9.26269531 C86.01134814 9.26451698 79.57178 9.26211078 73.13220215 9.25735474 C65.67670318 9.25191212 58.22123155 9.25367478 50.76573324 9.25918114 C44.37593905 9.26371236 37.9861531 9.26436278 31.59635782 9.26174247 C27.77504433 9.26017974 23.95374371 9.25998582 20.13243103 9.26327896 C16.54068656 9.2661578 12.94897749 9.26418176 9.35723686 9.2583847 C7.40247014 9.25642158 5.44770043 9.25941091 3.49293518 9.26251221 C2.34026657 9.25969238 1.18759796 9.25687256 0 9.25396729 C-1.0080645 9.25359026 -2.016129 9.25321323 -3.05474091 9.25282478 C-5.3145752 9.12698364 -5.3145752 9.12698364 -6.3145752 8.12698364 C-6.4395752 4.62698364 -6.4395752 4.62698364 -6.3145752 1.12698364 C-4.59822182 -0.58936973 -2.34311053 0.00087635 0 0 Z " fill="#030303" transform="translate(238.3145751953125,517.8730163574219)"/>
<path d="M0 0 C1.632006 -0.01418472 1.632006 -0.01418472 3.29698181 -0.02865601 C4.4720076 -0.02258331 5.64703339 -0.01651062 6.85766602 -0.01025391 C8.66824242 -0.01455917 8.66824242 -0.01455917 10.51539612 -0.01895142 C13.07000192 -0.02099442 15.62462328 -0.01544818 18.17919922 -0.00292969 C22.09255962 0.01310569 26.00488494 -0.00276433 29.91821289 -0.02197266 C32.39803288 -0.01998999 34.87785223 -0.01614585 37.35766602 -0.01025391 C38.53066757 -0.0163266 39.70366913 -0.02239929 40.91221619 -0.02865601 C42.00337234 -0.01919952 43.0945285 -0.00974304 44.21875 0 C45.65745705 0.00358017 45.65745705 0.00358017 47.12522888 0.00723267 C50.07955962 0.44878786 51.46687643 1.42485583 53.67407227 3.38818359 C53.36157227 6.76318359 53.36157227 6.76318359 52.67407227 10.38818359 C49.36051518 12.59722165 48.30073004 12.64741836 44.43994141 12.67871094 C43.37195816 12.69147064 42.30397491 12.70423035 41.20362854 12.71737671 C39.47390053 12.72071518 39.47390053 12.72071518 37.70922852 12.72412109 C36.52437363 12.73077789 35.33951874 12.73743469 34.11875916 12.74429321 C31.61125239 12.75442514 29.10371862 12.75911007 26.59619141 12.75878906 C22.75516463 12.76316242 18.91528629 12.79947923 15.07446289 12.83740234 C12.64022204 12.84327023 10.20597571 12.84723981 7.77172852 12.84912109 C6.62060074 12.86349213 5.46947296 12.87786316 4.28346252 12.89266968 C3.21232712 12.88651642 2.14119171 12.88036316 1.03759766 12.87402344 C-0.37446205 12.87829849 -0.37446205 12.87829849 -1.81504822 12.88265991 C-5.08428462 12.23883771 -6.27931163 10.9641571 -8.32592773 8.38818359 C-8.76342773 5.82568359 -8.76342773 5.82568359 -8.32592773 3.38818359 C-5.92242997 0.11218553 -3.94112342 0.00981548 0 0 Z " fill="#0E0E0E" transform="translate(56.325927734375,276.61181640625)"/>
<path d="M0 0 C2.92911841 0.5257392 3.6552423 1.09065256 5.4375 3.4375 C5.81845093 5.86608887 5.81845093 5.86608887 5.82568359 8.77929688 C5.83986832 10.41614441 5.83986832 10.41614441 5.8543396 12.08605957 C5.84826691 13.26422241 5.84219421 14.44238525 5.8359375 15.65625 C5.84024277 17.47038391 5.84024277 17.47038391 5.84463501 19.32116699 C5.84667786 21.87996895 5.84113268 24.43878645 5.82861328 26.99755859 C5.81256379 30.92190354 5.82845562 34.84521847 5.84765625 38.76953125 C5.84567386 41.25260645 5.84183027 43.735681 5.8359375 46.21875 C5.84201019 47.39691284 5.84808289 48.57507568 5.8543396 49.78894043 C5.84488312 50.88017212 5.83542664 51.97140381 5.82568359 53.09570312 C5.82329681 54.05706177 5.82091003 55.01842041 5.81845093 56.00891113 C5.4375 58.4375 5.4375 58.4375 4.10073853 60.24401855 C1.48591825 62.12032158 -0.44819694 61.8916692 -3.5625 61.4375 C-6.47257706 58.46333751 -6.94254639 56.27198088 -6.96655273 52.18164062 C-6.97923691 51.13375366 -6.99192108 50.0858667 -7.00498962 49.00622559 C-7.00205399 47.88010864 -6.99911835 46.7539917 -6.99609375 45.59375 C-7.0013356 44.4325061 -7.00657745 43.27126221 -7.01197815 42.0748291 C-7.01839982 39.62036946 -7.01705952 37.16587905 -7.00854492 34.71142578 C-7.00003191 30.9515927 -7.02880194 27.19327683 -7.06054688 23.43359375 C-7.06215885 21.04947962 -7.06158144 18.6653628 -7.05859375 16.28125 C-7.06982773 15.15513306 -7.08106171 14.02901611 -7.09263611 12.86877441 C-7.08325516 11.82088745 -7.07387421 10.77300049 -7.06420898 9.69335938 C-7.06404282 8.77276733 -7.06387665 7.85217529 -7.06370544 6.90368652 C-6.24408077 2.87071494 -4.03824045 0.68945569 0 0 Z " fill="#0D0D0D" transform="translate(309.5625,30.5625)"/>
<path d="M0 0 C2.12158203 2.41186523 2.12158203 2.41186523 3.8828125 5.62109375 C4.21000275 6.19846786 4.53719299 6.77584198 4.8742981 7.37071228 C5.57304754 8.60467691 6.262386 9.84401047 6.94299316 11.08807373 C8.34455011 13.62322626 9.82654148 16.10661064 11.31048584 18.59414673 C12.80647371 21.10506819 14.28132621 23.62813142 15.75683594 26.15112305 C16.89313182 28.09349433 18.03237746 30.03411496 19.171875 31.97460938 C19.9038188 33.223857 20.63559608 34.47320222 21.3671875 35.72265625 C22.01800293 36.83390869 22.66881836 37.94516113 23.33935547 39.09008789 C27.04043677 45.57541397 27.04043677 45.57541397 26.75 48.625 C26 51 26 51 24 53 C21.125 53.4375 21.125 53.4375 18 53 C14.25468841 49.02981463 11.73224399 44.28405054 9.0625 39.5625 C5.90224783 34.01276218 2.7100355 28.49163653 -0.609375 23.03515625 C-1.20500244 22.05023193 -1.80062988 21.06530762 -2.41430664 20.05053711 C-3.57945529 18.12819424 -4.75289306 16.21084653 -5.93530273 14.29907227 C-6.46583252 13.41920654 -6.9963623 12.53934082 -7.54296875 11.6328125 C-8.01758545 10.85824707 -8.49220215 10.08368164 -8.98120117 9.28564453 C-10.15653398 6.64882073 -10.27007642 4.85783419 -10 2 C-7.58803179 -2.2564145 -4.2287988 -1.07615717 0 0 Z " fill="#0A0A0A" transform="translate(187,64)"/>
<path d="M0 0 C3.4375 0.25 3.4375 0.25 7 1 C9 4 9 4 8.90234375 6.171875 C7.62711513 10.16869544 5.64196926 13.61872876 3.5625 17.25 C3.11874023 18.03560303 2.67498047 18.82120605 2.21777344 19.63061523 C0.82152066 22.09275301 -0.58691254 24.54748975 -2 27 C-2.44682129 27.77682129 -2.89364258 28.55364258 -3.35400391 29.35400391 C-15.63374181 50.63374181 -15.63374181 50.63374181 -19 54 C-22.4375 54.25 -22.4375 54.25 -26 54 C-28.18284454 50.72573319 -28.39796772 49.79035626 -28 46 C-27.02539062 43.81860352 -27.02539062 43.81860352 -25.65625 41.62890625 C-25.15569092 40.81413818 -24.65513184 39.99937012 -24.1394043 39.15991211 C-23.32789917 37.87419312 -23.32789917 37.87419312 -22.5 36.5625 C-21.39069841 34.763778 -20.2826295 32.96429521 -19.17578125 31.1640625 C-18.63131348 30.28395508 -18.0868457 29.40384766 -17.52587891 28.49707031 C-15.50251375 25.1858737 -13.58417562 21.82232166 -11.6875 18.4375 C-2.87192623 2.87192623 -2.87192623 2.87192623 0 0 Z " fill="#0A0A0A" transform="translate(432,66)"/>
<path d="M0 0 C3.69987627 0.82009088 6.20174548 1.91895025 9.44677734 3.84155273 C11.04404663 4.77620361 11.04404663 4.77620361 12.67358398 5.72973633 C13.78725342 6.3969873 14.90092285 7.06423828 16.04833984 7.75170898 C17.20585331 8.43454455 18.36398004 9.11634156 19.52270508 9.79711914 C21.83005489 11.15501779 24.13268367 12.52003674 26.43359375 13.88891602 C29.32222043 15.60554827 32.21901326 17.30657086 35.12255859 18.99780273 C46.4808904 25.62175954 46.4808904 25.62175954 47.67333984 26.81420898 C47.92333984 30.25170898 47.92333984 30.25170898 47.67333984 33.81420898 C44.67333984 35.81420898 44.67333984 35.81420898 41.38061523 35.64648438 C37.4876633 34.772525 34.78946217 33.51073953 31.35693359 31.49780273 C30.7785524 31.16305435 30.2001712 30.82830597 29.60426331 30.4834137 C27.76670914 29.41675113 25.93875766 28.33478484 24.11083984 27.25170898 C22.91289084 26.55208081 21.71432637 25.85350538 20.51513672 25.15600586 C18.11748639 23.76020077 15.72414593 22.35736626 13.33300781 20.95043945 C10.80761707 19.46915554 8.26978112 18.01264603 5.72070312 16.57250977 C5.07972183 16.20996597 4.43874054 15.84742218 3.77833557 15.47389221 C1.99486886 14.46764983 0.20928689 13.46515923 -1.57641602 12.46289062 C-4.32666016 10.81420898 -4.32666016 10.81420898 -6.32666016 8.81420898 C-6.63916016 5.31420898 -6.63916016 5.31420898 -6.32666016 1.81420898 C-3.32666016 -0.18579102 -3.32666016 -0.18579102 0 0 Z " fill="#0A0A0A" transform="translate(90.32666015625,153.185791015625)"/>
<path d="M0 0 C2 1.125 2 1.125 3 3 C2.953125 5.859375 2.953125 5.859375 2 9 C-0.11409436 10.70753775 -1.88669937 11.86938239 -4.25 13.125 C-4.90387695 13.49407471 -5.55775391 13.86314941 -6.23144531 14.2434082 C-7.68228449 15.06088867 -9.13799085 15.86977238 -10.59765625 16.67138672 C-13.17605669 18.09736794 -15.72969021 19.56171379 -18.28125 21.03515625 C-22.73483433 23.60677033 -27.20482264 26.14781191 -31.68164062 28.67871094 C-33.66941226 29.81159006 -35.64244535 30.96430551 -37.609375 32.1328125 C-39.04023438 32.96425781 -39.04023438 32.96425781 -40.5 33.8125 C-41.2734375 34.27269531 -42.046875 34.73289063 -42.84375 35.20703125 C-45.62724905 36.23067311 -47.20681124 35.90778635 -50 35 C-52 33 -52 33 -52.4375 30.125 C-52 27 -52 27 -49.84375 25.01660156 C-46.99377531 22.99558586 -44.13037751 21.27968536 -41.0625 19.609375 C-39.91910156 18.98160156 -38.77570313 18.35382813 -37.59765625 17.70703125 C-36.39867286 17.05425502 -35.19945341 16.40191219 -34 15.75 C-31.66497357 14.47705917 -29.3316348 13.20101766 -27 11.921875 C-25.84371094 11.28830078 -24.68742187 10.65472656 -23.49609375 10.00195312 C-21.09767233 8.65724131 -18.77543128 7.23488506 -16.47265625 5.73242188 C-15.89966797 5.36191711 -15.32667969 4.99141235 -14.73632812 4.60968018 C-13.16015132 3.5794523 -11.59716528 2.52912385 -10.03515625 1.47753906 C-6.42571088 -0.27956867 -3.96821252 -0.35456051 0 0 Z " fill="#0A0A0A" transform="translate(529,159)"/>
<path d="M0 0 C3.55035508 0.32665 5.37588164 1.1635941 8.40332031 3.00537109 C9.3755957 3.58633545 10.34787109 4.1672998 11.34960938 4.76586914 C12.88439941 5.70813354 12.88439941 5.70813354 14.45019531 6.66943359 C16.59503862 7.95624146 18.74088246 9.24138301 20.88769531 10.52490234 C22.48097656 11.48275635 22.48097656 11.48275635 24.10644531 12.45996094 C29.22372694 15.49430864 34.43781238 18.34696243 39.66601562 21.18457031 C46.79826436 25.08708945 46.79826436 25.08708945 49.20019531 27.29443359 C49.66353324 30.47160793 49.69305883 32.39568247 48.13769531 35.23193359 C44.99534528 36.95515781 42.64241599 36.03006946 39.20019531 35.29443359 C36.42652843 34.11047635 33.86209686 32.63096628 31.26269531 31.10693359 C30.50923828 30.67638672 29.75578125 30.24583984 28.97949219 29.80224609 C26.37956247 28.31120206 23.79029494 26.80248352 21.20019531 25.29443359 C19.05337734 24.05820508 16.9062273 22.82255309 14.75878906 21.58740234 C12.57198818 20.32412262 10.38578423 19.05980897 8.20019531 17.79443359 C7.14324463 17.18317627 6.08629395 16.57191895 4.99731445 15.94213867 C4.01239014 15.3674585 3.02746582 14.79277832 2.01269531 14.20068359 C0.69205078 13.43208008 0.69205078 13.43208008 -0.65527344 12.64794922 C-2.79980469 11.29443359 -2.79980469 11.29443359 -4.79980469 9.29443359 C-5.04980469 5.79443359 -5.04980469 5.79443359 -4.79980469 2.29443359 C-2.79980469 0.29443359 -2.79980469 0.29443359 0 0 Z " fill="#0A0A0A" transform="translate(478.7998046875,382.70556640625)"/>
<path d="M0 0 C2.9375 0.75 2.9375 0.75 4.9375 2.75 C5.625 5.5 5.625 5.5 4.9375 8.75 C-1.69674574 14.53647244 -10.40573304 18.47857616 -18.0625 22.8125 C-19.29443726 23.51337943 -20.526209 24.21454988 -21.7578125 24.91601562 C-24.12036523 26.26067862 -26.48586929 27.59963035 -28.85327148 28.93579102 C-30.84729046 30.06302989 -32.83720735 31.19759802 -34.82055664 32.34350586 C-35.61324951 32.79733643 -36.40594238 33.25116699 -37.22265625 33.71875 C-37.89176025 34.10611328 -38.56086426 34.49347656 -39.25024414 34.89257812 C-41.95835467 36.17385041 -44.14148598 36.24870971 -47.0625 35.75 C-49.0625 33.75 -49.0625 33.75 -49.75 30.5 C-49.0625 26.75 -49.0625 26.75 -47.4375 25.16796875 C-43.46482826 22.47932127 -39.20284057 20.27181481 -34.98828125 17.98828125 C-28.97995967 14.71675293 -23.01700034 11.36828043 -17.0625 8 C-16.04027344 7.42378906 -15.01804688 6.84757812 -13.96484375 6.25390625 C-12.98644531 5.70089844 -12.00804687 5.14789063 -11 4.578125 C-10.12214844 4.0821582 -9.24429688 3.58619141 -8.33984375 3.07519531 C-2.67926844 -0.21871579 -2.67926844 -0.21871579 0 0 Z " fill="#090909" transform="translate(130.0625,377.25)"/>
<path d="M0 0 C7.3800015 -0.06949629 14.7599325 -0.12280914 22.14019489 -0.15543652 C25.56713223 -0.17109574 28.99384577 -0.19233804 32.4206543 -0.22631836 C36.35983608 -0.26513514 40.29892709 -0.27970716 44.23828125 -0.29296875 C45.46960281 -0.30845261 46.70092438 -0.32393646 47.96955872 -0.33988953 C49.11051498 -0.34011612 50.25147125 -0.34034271 51.42700195 -0.34057617 C52.432939 -0.34723801 53.43887604 -0.35389984 54.47529602 -0.36076355 C57 0 57 0 58.85612488 1.32987976 C60 3 60 3 59.875 6.0625 C59 9 59 9 56 11 C53.57141113 11.26742554 53.57141113 11.26742554 50.65820312 11.29052734 C49.56697144 11.30328705 48.47573975 11.31604675 47.35144043 11.32919312 C46.17327759 11.33141876 44.99511475 11.33364441 43.78125 11.3359375 C42.57182739 11.3425943 41.36240479 11.3492511 40.11633301 11.35610962 C37.5575513 11.36624124 34.99874315 11.37092648 32.43994141 11.37060547 C28.51551076 11.3749827 24.59220062 11.4113106 20.66796875 11.44921875 C18.18489969 11.45508581 15.70182528 11.45905594 13.21875 11.4609375 C12.04058716 11.47530853 10.86242432 11.48967957 9.64855957 11.50448608 C8.55732788 11.49833282 7.46609619 11.49217957 6.34179688 11.48583984 C5.38043823 11.48868988 4.41907959 11.49153992 3.42858887 11.49447632 C1 11 1 11 -0.8494873 9.13369751 C-2 7 -2 7 -1.75 4.375 C-1 2 -1 2 0 0 Z " fill="#030303" transform="translate(504,284)"/>
<path d="M0 0 C0.99 0.99 0.99 0.99 2 2 C0.61932373 3.97735596 0.61932373 3.97735596 -2 6 C-5.30042806 6.57831832 -8.56804759 6.44587954 -11.90917969 6.36230469 C-12.91438156 6.35313522 -13.91958344 6.34396576 -14.95524597 6.33451843 C-18.27799948 6.29944474 -21.59956108 6.23577291 -24.921875 6.171875 C-27.22542135 6.14197783 -29.52899149 6.11386382 -31.83258057 6.08746338 C-37.89592364 6.01317419 -43.95864065 5.91463423 -50.02154541 5.81109619 C-56.20817847 5.70971914 -62.39509658 5.63120284 -68.58203125 5.55078125 C-80.72174342 5.3896023 -92.860917 5.20281093 -105 5 C-105 4.67 -105 4.34 -105 4 C-103.71404938 3.99413376 -102.42809875 3.98826752 -101.10317993 3.98222351 C-89.00700684 3.92510589 -76.91101542 3.85240218 -64.81502724 3.76428509 C-58.59577342 3.71948405 -52.37658659 3.68024955 -46.15722656 3.65356445 C-40.15951325 3.62762842 -34.1620564 3.5872954 -28.16450119 3.53681374 C-25.8719132 3.52007916 -23.57928079 3.50860613 -21.28664017 3.50238609 C-18.08486036 3.49281649 -14.88374657 3.46484339 -11.68212891 3.43237305 C-10.24822563 3.43452568 -10.24822563 3.43452568 -8.78535461 3.4367218 C-7.91594742 3.42418365 -7.04654022 3.41164551 -6.15078735 3.39872742 C-5.39307352 3.39411845 -4.63535969 3.38950949 -3.85468483 3.38476086 C-1.58671931 3.14060968 -1.58671931 3.14060968 0 0 Z " fill="#DEDADB" transform="translate(345,487)"/>
<path d="M0 0 C3.95251967 0.54876811 6.26784093 1.67254316 9.4375 4.0625 C13.10401041 6.6315098 15.40876834 7.70634333 20 7 C17.82575883 9.50037734 16.26954202 10.43628586 13 11 C13 10.34 13 9.68 13 9 C12.34 9 11.68 9 11 9 C10.67 9.66 10.34 10.32 10 11 C10 10.01 10 9.02 10 8 C6.04 8 2.08 8 -2 8 C-2 7.34 -2 6.68 -2 6 C-3.32 6.33 -4.64 6.66 -6 7 C-4.02 4.69 -2.04 2.38 0 0 Z " fill="#2A2829" transform="translate(262,240)"/>
<path d="M0 0 C2.125 0.375 2.125 0.375 4 1 C3.01 2.485 3.01 2.485 2 4 C1.85754103 6.76655324 1.81230555 9.42653306 1.875 12.1875 C1.88402344 12.93708984 1.89304688 13.68667969 1.90234375 14.45898438 C1.92587422 16.30612654 1.96174439 18.15310412 2 20 C1.01 20.33 0.02 20.66 -1 21 C-3.15732833 18.84267167 -2.18520919 14.05201247 -2.1875 11.0625 C-2.19974609 10.22525391 -2.21199219 9.38800781 -2.22460938 8.52539062 C-2.22654297 7.72423828 -2.22847656 6.92308594 -2.23046875 6.09765625 C-2.23457764 5.36039307 -2.23868652 4.62312988 -2.24291992 3.86352539 C-2 2 -2 2 0 0 Z " fill="#272425" transform="translate(237,284)"/>
<path d="M0 0 C1.5078125 1.21484375 1.5078125 1.21484375 3 3 C3.1796875 5.19140625 3.1796875 5.19140625 2.875 7.5625 C2.78992188 8.34753906 2.70484375 9.13257813 2.6171875 9.94140625 C2 12 2 12 -1 14 C-1 13.34 -1 12.68 -1 12 C-1.99 12 -2.98 12 -4 12 C-3.52309796 10.37433394 -3.04340334 8.74948689 -2.5625 7.125 C-2.29566406 6.22007812 -2.02882813 5.31515625 -1.75390625 4.3828125 C-1 2 -1 2 0 0 Z " fill="#2D2B2C" transform="translate(445,204)"/>
<path d="M0 0 C2.475 0.99 2.475 0.99 5 2 C5 2.66 5 3.32 5 4 C6.98 3.34 8.96 2.68 11 2 C11 2.99 11 3.98 11 5 C8.31265567 7.14987546 6.78529628 8.03652541 3.3125 7.875 C1 7 1 7 -1 4 C-0.34 3.34 0.32 2.68 1 2 C0.67 1.34 0.34 0.68 0 0 Z " fill="#2B292A" transform="translate(260,346)"/>
<path d="M0 0 C0 3 0 3 -1.0625 4.875 C-2.25736165 7.01308549 -2.25736165 7.01308549 -1.4375 9.5 C-1 12 -1 12 -2.4375 14.3125 C-2.953125 14.869375 -3.46875 15.42625 -4 16 C-5.82403839 13.44634625 -6.9809668 11.74229462 -7.0625 8.5625 C-5.49781655 4.78885169 -3.00520501 2.74944288 0 0 Z " fill="#2F2D2E" transform="translate(255,247)"/>
<path d="M0 0 C0.33 0.66 0.66 1.32 1 2 C0.34 2.66 -0.32 3.32 -1 4 C-1 4.66 -1 5.32 -1 6 C-4.29859156 8.47394367 -7.01849779 10.07098282 -11 11 C-13.2072358 12.48800372 -13.2072358 12.48800372 -15 14 C-15.66 13.67 -16.32 13.34 -17 13 C-11.25 8 -11.25 8 -9 8 C-9 7.34 -9 6.68 -9 6 C-7.03125 4.4921875 -7.03125 4.4921875 -4.5 2.875 C-3.24703125 2.06675781 -3.24703125 2.06675781 -1.96875 1.2421875 C-1.3190625 0.83226562 -0.669375 0.42234375 0 0 Z " fill="#3C3A3B" transform="translate(217,156)"/>
<path d="M0 0 C2.875 -0.125 2.875 -0.125 6 0 C6.66 0.66 7.32 1.32 8 2 C5.67920899 5.27479205 2.85480053 5.65843594 -0.95117188 6.33007812 C-1.68916016 6.44802734 -2.42714844 6.56597656 -3.1875 6.6875 C-4.31188477 6.88182617 -4.31188477 6.88182617 -5.45898438 7.08007812 C-7.30418359 7.39740538 -9.151883 7.70013291 -11 8 C-10.67 7.34 -10.34 6.68 -10 6 C-7.35139573 5.40644386 -4.70802678 5.25790731 -2 5 C-2 4.34 -2 3.68 -2 3 C-1.34 2.34 -0.68 1.68 0 1 C0 0.67 0 0.34 0 0 Z " fill="#2E2C2D" transform="translate(280,146)"/>
<path d="M0 0 C0.886875 0.309375 1.77375 0.61875 2.6875 0.9375 C6.55685611 2.17861422 9.93504351 3 14 3 C14.66 3 15.32 3 16 3 C15.67 3.99 15.34 4.98 15 6 C14.34 5.67 13.68 5.34 13 5 C12.67 5.99 12.34 6.98 12 8 C11.34 7.67 10.68 7.34 10 7 C9.67 7.66 9.34 8.32 9 9 C7.49704815 7.69088122 5.99770689 6.37761608 4.5 5.0625 C3.6646875 4.33160156 2.829375 3.60070312 1.96875 2.84765625 C1.3190625 2.23792969 0.669375 1.62820312 0 1 C0 0.67 0 0.34 0 0 Z " fill="#333031" transform="translate(375,230)"/>
<path d="M0 0 C1.9375 0.875 1.9375 0.875 4.9375 2.875 C8.06271833 3.04199232 8.06271833 3.04199232 10.9375 2.875 C8.76325883 5.37537734 7.20704202 6.31128586 3.9375 6.875 C3.9375 6.215 3.9375 5.555 3.9375 4.875 C3.2775 4.875 2.6175 4.875 1.9375 4.875 C1.6075 5.535 1.2775 6.195 0.9375 6.875 C0.9375 5.885 0.9375 4.895 0.9375 3.875 C-1.3725 3.875 -3.6825 3.875 -6.0625 3.875 C-2.63891921 -0.1599345 -2.63891921 -0.1599345 0 0 Z " fill="#312F30" transform="translate(271.0625,244.125)"/>
<path d="M0 0 C1.32 0 2.64 0 4 0 C4 0.66 4 1.32 4 2 C6.97 2 9.94 2 13 2 C9 4 5 6 1 8 C0.34 6.68 -0.32 5.36 -1 4 C-0.34 3.34 0.32 2.68 1 2 C0.67 1.34 0.34 0.68 0 0 Z " fill="#272224" transform="translate(281,258)"/>
<path d="M0 0 C0.33 0 0.66 0 1 0 C1 4.95 1 9.9 1 15 C-0.32 14.67 -1.64 14.34 -3 14 C-3.99 14.495 -3.99 14.495 -5 15 C-4.54705135 13.24859857 -4.08741252 11.49892656 -3.625 9.75 C-3.36976563 8.77546875 -3.11453125 7.8009375 -2.8515625 6.796875 C-2.10401491 4.34162697 -1.22876183 2.24382595 0 0 Z " fill="#3F3C3D" transform="translate(165,220)"/>
<path d="M0 0 C1.1055189 0.93590504 2.20935453 1.87379858 3.3125 2.8125 C3.92738281 3.33457031 4.54226562 3.85664063 5.17578125 4.39453125 C8.22517052 7.078255 10.3239276 9.26106926 12 13 C7.95538929 13 7.12966302 11.56262652 4.3125 8.75 C3.50425781 7.96109375 2.69601563 7.1721875 1.86328125 6.359375 C0 4 0 4 0 0 Z " fill="#2D2B2C" transform="translate(248,336)"/>
<path d="M0 0 C6.27 0 12.54 0 19 0 C19 0.33 19 0.66 19 1 C14.05 1.33 9.1 1.66 4 2 C3.34 3.98 2.68 5.96 2 8 C1.01 8.66 0.02 9.32 -1 10 C-1.125 3.375 -1.125 3.375 0 0 Z " fill="#201B1C" transform="translate(293,230)"/>
<path d="M0 0 C2.4375 0.875 2.4375 0.875 4.4375 3.875 C3.4475 4.865 2.4575 5.855 1.4375 6.875 C-2.0275 4.895 -2.0275 4.895 -5.5625 2.875 C-3.71830214 0.44842386 -3.12817806 -0.15259405 0 0 Z " fill="#2C292A" transform="translate(340.5625,345.125)"/>
<path d="M0 0 C4.60986586 1.9075307 6.30103672 4.95155508 9 9 C7.68 10.32 6.36 11.64 5 13 C4.67 10.36 4.34 7.72 4 5 C2.35 4.67 0.7 4.34 -1 4 C-0.67 2.68 -0.34 1.36 0 0 Z " fill="#2E2B2C" transform="translate(286,345)"/>
<path d="M0 0 C1.04059132 3.12177395 1.32284898 4.07083439 0 7 C-2.5625 8.25 -2.5625 8.25 -5 9 C-5 9.66 -5 10.32 -5 11 C-6.65 11.33 -8.3 11.66 -10 12 C-9.61328125 11.55269531 -9.2265625 11.10539062 -8.828125 10.64453125 C-5.81609925 7.1478974 -2.85678969 3.62592537 0 0 Z " fill="#3C3B3B" transform="translate(394,344)"/>
<path d="M0 0 C0.99 0.33 1.98 0.66 3 1 C2.01 5.62 1.02 10.24 0 15 C-2.5654594 12.4345406 -2.54046087 10.52313332 -3 7 C-2.34 6.67 -1.68 6.34 -1 6 C-1.0309375 4.7934375 -1.0309375 4.7934375 -1.0625 3.5625 C-1 1 -1 1 0 0 Z " fill="#2C2A2B" transform="translate(357,409)"/>
<path d="M0 0 C0.598125 0.309375 1.19625 0.61875 1.8125 0.9375 C4.08956772 2.10209704 4.08956772 2.10209704 7 3 C4.03 5.97 1.06 8.94 -2 12 C-2.33 11.01 -2.66 10.02 -3 9 C-2.505 8.62875 -2.01 8.2575 -1.5 7.875 C0.59755514 5.25305607 0.21743835 3.26157528 0 0 Z " fill="#353132" transform="translate(209,180)"/>
<path d="M0 0 C-0.99 1.485 -0.99 1.485 -2 3 C-5.0390625 3.51171875 -5.0390625 3.51171875 -8.625 3.6875 C-9.81351562 3.75324219 -11.00203125 3.81898438 -12.2265625 3.88671875 C-13.59941406 3.94279297 -13.59941406 3.94279297 -15 4 C-14.34 3.67 -13.68 3.34 -13 3 C-13 2.34 -13 1.68 -13 1 C-11.20994059 0.63779734 -9.41787943 0.28547531 -7.625 -0.0625 C-6.12839844 -0.35833984 -6.12839844 -0.35833984 -4.6015625 -0.66015625 C-2 -1 -2 -1 0 0 Z " fill="#2E2A2B" transform="translate(349,377)"/>
<path d="M0 0 C-0.95421808 1.14926266 -1.91352045 2.29430541 -2.875 3.4375 C-3.40867187 4.07558594 -3.94234375 4.71367187 -4.4921875 5.37109375 C-6 7 -6 7 -8 8 C-8.625 5.625 -8.625 5.625 -9 3 C-5.93488101 -0.06511899 -4.25015687 -1.41671896 0 0 Z " fill="#2A2829" transform="translate(433,402)"/>
<path d="M0 0 C2.0625 0.4375 2.0625 0.4375 4 1 C4 1.66 4 2.32 4 3 C3.01 3.495 3.01 3.495 2 4 C2.66 4.66 3.32 5.32 4 6 C-0.17481239 7.39160413 -2.90233084 6.36588972 -7 5 C-6.030625 4.360625 -5.06125 3.72125 -4.0625 3.0625 C-1.23963731 1.3034741 -1.23963731 1.3034741 0 0 Z " fill="#333232" transform="translate(377,361)"/>
<path d="M0 0 C1.27875 -0.061875 2.5575 -0.12375 3.875 -0.1875 C4.95394531 -0.23970703 4.95394531 -0.23970703 6.0546875 -0.29296875 C6.69664062 -0.19628906 7.33859375 -0.09960938 8 0 C8.66 0.99 9.32 1.98 10 3 C6.78548731 4.60725635 3.56387464 4.05748185 0 4 C0 2.68 0 1.36 0 0 Z " fill="#1E1C1D" transform="translate(360,306)"/>
<path d="M0 0 C4.95 0.99 4.95 0.99 10 2 C9.67 2.99 9.34 3.98 9 5 C7.02 5.33 5.04 5.66 3 6 C3 5.34 3 4.68 3 4 C2.01 3.67 1.02 3.34 0 3 C0 2.01 0 1.02 0 0 Z " fill="#1D1B1C" transform="translate(239,304)"/>
<path d="M0 0 C2.0625 0.4375 2.0625 0.4375 4 1 C3.01 2.485 3.01 2.485 2 4 C1.85754103 6.76655324 1.81230555 9.42653306 1.875 12.1875 C1.88402344 12.93708984 1.89304688 13.68667969 1.90234375 14.45898438 C1.92587422 16.30612654 1.96174439 18.15310412 2 20 C1.67 20 1.34 20 1 20 C0.93941406 18.96359375 0.87882813 17.9271875 0.81640625 16.859375 C0.73196629 15.48957127 0.64732003 14.11978025 0.5625 12.75 C0.52318359 12.06808594 0.48386719 11.38617188 0.44335938 10.68359375 C0.2319977 7.33432421 -0.17284558 4.2443727 -1 1 C-0.67 0.67 -0.34 0.34 0 0 Z " fill="#343132" transform="translate(237,284)"/>
<path d="M0 0 C0.99 0.33 1.98 0.66 3 1 C2.67 2.65 2.34 4.3 2 6 C-0.97 6 -3.94 6 -7 6 C-6.67 5.01 -6.34 4.02 -6 3 C-2.9375 1.8125 -2.9375 1.8125 0 1 C0 0.67 0 0.34 0 0 Z " fill="#1C1A1B" transform="translate(253,281)"/>
<path d="M0 0 C0.66 0 1.32 0 2 0 C3.4002792 5.46108889 2.42705634 9.69276568 1 15 C0.67 15 0.34 15 0 15 C-0.19517554 13.06325815 -0.38087873 11.12555991 -0.5625 9.1875 C-0.66691406 8.10855469 -0.77132812 7.02960938 -0.87890625 5.91796875 C-1 3 -1 3 0 0 Z " fill="#383637" transform="translate(226,458)"/>
<path d="M0 0 C0.66 0.33 1.32 0.66 2 1 C1.2575 2.1446875 1.2575 2.1446875 0.5 3.3125 C-1.24368308 5.92363751 -1.24368308 5.92363751 -1 9 C-2.32 9 -3.64 9 -5 9 C-4.67 7.68 -4.34 6.36 -4 5 C-4.66 4.67 -5.32 4.34 -6 4 C-4.02 2.68 -2.04 1.36 0 0 Z " fill="#2D2B2C" transform="translate(224,151)"/>
<path d="M0 0 C0.598125 0.165 1.19625 0.33 1.8125 0.5 C4.11344336 1.1114124 4.11344336 1.1114124 7 1 C7.33 1 7.66 1 8 1 C8 2.98 8 4.96 8 7 C7.34 6.34 6.68 5.68 6 5 C5.34 5.66 4.68 6.32 4 7 C2.02 3.535 2.02 3.535 0 0 Z " fill="#2C2829" transform="translate(391,245)"/>
<path d="M0 0 C1.65 0 3.3 0 5 0 C5.33 1.32 5.66 2.64 6 4 C4.35 4.66 2.7 5.32 1 6 C-0.32 4.68 -1.64 3.36 -3 2 C-2.01 1.67 -1.02 1.34 0 1 C0 0.67 0 0.34 0 0 Z " fill="#F0F0F0" transform="translate(275,242)"/>
<path d="M0 0 C0.99 0.66 1.98 1.32 3 2 C2.67 3.65 2.34 5.3 2 7 C0.68 7 -0.64 7 -2 7 C-2.125 4.625 -2.125 4.625 -2 2 C-1.34 1.34 -0.68 0.68 0 0 Z " fill="#2A2829" transform="translate(435,224)"/>
<path d="M0 0 C7.38461538 -0.49230769 7.38461538 -0.49230769 10.5 2 C10.995 2.66 11.49 3.32 12 4 C9 6 9 6 6.3125 5.625 C5.549375 5.41875 4.78625 5.2125 4 5 C5.32 4.34 6.64 3.68 8 3 C5.36 2.34 2.72 1.68 0 1 C0 0.67 0 0.34 0 0 Z " fill="#333132" transform="translate(410,177)"/>
<path d="M0 0 C2.17854707 3.2678206 3.49760034 6.38058265 5 10 C3.68 10 2.36 10 1 10 C-0.04005702 6.61981469 -0.08004482 3.5219721 0 0 Z " fill="#363435" transform="translate(268,309)"/>
<path d="M0 0 C1.485 0.99 1.485 0.99 3 2 C3.47446226 5.60591321 2.83832664 7.89782379 1 11 C0.34 10.34 -0.32 9.68 -1 9 C-0.9765625 6.8359375 -0.9765625 6.8359375 -0.625 4.375 C-0.51414063 3.55773437 -0.40328125 2.74046875 -0.2890625 1.8984375 C-0.19367188 1.27195312 -0.09828125 0.64546875 0 0 Z " fill="#1F191B" transform="translate(172,293)"/>
<path d="M0 0 C0.33 0 0.66 0 1 0 C2.32854177 5.9180497 1.66464729 8.77729131 -1 14 C-3.475 13.01 -3.475 13.01 -6 12 C-3 10 -3 10 -1 10 C-0.67 6.7 -0.34 3.4 0 0 Z " fill="#434142" transform="translate(291,234)"/>
<path d="M0 0 C0 0.99 0 1.98 0 3 C1.98 2.67 3.96 2.34 6 2 C2.71536341 4.18975773 -0.20696275 4.99806563 -4 6 C-4.33 4.68 -4.66 3.36 -5 2 C-2 0 -2 0 0 0 Z " fill="#2F2D2E" transform="translate(254,154)"/>
<path d="M0 0 C0.33 0.66 0.66 1.32 1 2 C1.99 2 2.98 2 4 2 C5.6875 4 5.6875 4 7 6 C6.34 6.66 5.68 7.32 5 8 C2.69 6.35 0.38 4.7 -2 3 C-1.34 2.67 -0.68 2.34 0 2 C0 1.34 0 0.68 0 0 Z " fill="#363536" transform="translate(388,398)"/>
<path d="M0 0 C0.99 0.33 1.98 0.66 3 1 C-1.625 6.875 -1.625 6.875 -5 8 C-3.8141763 4.62496331 -2.72426311 2.35277269 0 0 Z " fill="#2E2C2D" transform="translate(422,409)"/>
<path d="M0 0 C0.66 0.33 1.32 0.66 2 1 C1.34 2.32 0.68 3.64 0 5 C-0.99 5 -1.98 5 -3 5 C-3.33 5.66 -3.66 6.32 -4 7 C-4.66 7 -5.32 7 -6 7 C-5.8125 5.1875 -5.8125 5.1875 -5 3 C-2.5625 1.1875 -2.5625 1.1875 0 0 Z " fill="#161616" transform="translate(87,400)"/>
<path d="M0 0 C1.670625 0.061875 1.670625 0.061875 3.375 0.125 C3.375 0.785 3.375 1.445 3.375 2.125 C1.065 2.785 -1.245 3.445 -3.625 4.125 C-4.285 3.465 -4.945 2.805 -5.625 2.125 C-3.625 0.125 -3.625 0.125 0 0 Z " fill="#302C2D" transform="translate(326.625,344.875)"/>
<path d="M0 0 C2.20665404 3.30998105 2.78262095 5.82021436 3.625 9.6875 C3.88539063 10.86699219 4.14578125 12.04648437 4.4140625 13.26171875 C4.60742188 14.16535156 4.80078125 15.06898438 5 16 C3.68 15.67 2.36 15.34 1 15 C0.67 10.05 0.34 5.1 0 0 Z " fill="#444242" transform="translate(177,306)"/>
<path d="M0 0 C0.66 0.99 1.32 1.98 2 3 C1.34 3.66 0.68 4.32 0 5 C-0.309375 5.845625 -0.61875 6.69125 -0.9375 7.5625 C-1.288125 8.366875 -1.63875 9.17125 -2 10 C-2.99 10.33 -3.98 10.66 -5 11 C-3.77472971 6.94718288 -2.30119506 3.55639236 0 0 Z " fill="#383738" transform="translate(174,202)"/>
<path d="M0 0 C2.5 1.125 2.5 1.125 5 3 C5.3125 6.1875 5.3125 6.1875 5 9 C2.5 6.75 2.5 6.75 0 4 C0 2.68 0 1.36 0 0 Z " fill="#2A292A" transform="translate(205,405)"/>
<path d="M0 0 C1.37562854 1.28965176 2.70766393 2.62689293 4 4 C4 4.66 4 5.32 4 6 C2.125 7.0625 2.125 7.0625 0 8 C-0.66 7.67 -1.32 7.34 -2 7 C-1.34 4.69 -0.68 2.38 0 0 Z " fill="#1C1A1B" transform="translate(427,232)"/>
<path d="M0 0 C0.66 1.32 1.32 2.64 2 4 C0.1875 5.5625 0.1875 5.5625 -2 7 C-2.99 6.67 -3.98 6.34 -5 6 C-3.35 4.02 -1.7 2.04 0 0 Z " fill="#E9E8E9" transform="translate(205,193)"/>
<path d="M0 0 C2.31 1.98 4.62 3.96 7 6 C6.34 6.66 5.68 7.32 5 8 C4.01 7.67 3.02 7.34 2 7 C0.8125 3.4375 0.8125 3.4375 0 0 Z " fill="#312F30" transform="translate(425,184)"/>
<path d="M0 0 C1.32 0 2.64 0 4 0 C4.1875 2.375 4.1875 2.375 4 5 C3.01 5.66 2.02 6.32 1 7 C0.34 6.34 -0.32 5.68 -1 5 C-0.625 2.375 -0.625 2.375 0 0 Z " fill="#1C1A1B" transform="translate(234,431)"/>
<path d="M0 0 C0.33 0 0.66 0 1 0 C1.125 3.375 1.125 3.375 1 7 C0.34 7.66 -0.32 8.32 -1 9 C-2.9375 8.1875 -2.9375 8.1875 -5 7 C-5.33 6.01 -5.66 5.02 -6 4 C-5.34 3.67 -4.68 3.34 -4 3 C-3.34 3.66 -2.68 4.32 -2 5 C-1.34 5 -0.68 5 0 5 C0 3.35 0 1.7 0 0 Z " fill="#3B393A" transform="translate(447,380)"/>
<path d="M0 0 C0.99 0.66 1.98 1.32 3 2 C0.03 4.475 0.03 4.475 -3 7 C-3.33 6.01 -3.66 5.02 -4 4 C-2.68 2.68 -1.36 1.36 0 0 Z " fill="#F2F0F1" transform="translate(332,320)"/>
<path d="M0 0 C1.625 1.375 1.625 1.375 3 3 C3 3.66 3 4.32 3 5 C1.35 5 -0.3 5 -2 5 C-2.66 3.68 -3.32 2.36 -4 1 C-2 0 -2 0 0 0 Z " fill="#343233" transform="translate(239,305)"/>
<path d="M0 0 C0.66 0.33 1.32 0.66 2 1 C1.34 3.64 0.68 6.28 0 9 C-0.66 8.67 -1.32 8.34 -2 8 C-1.125 1.125 -1.125 1.125 0 0 Z " fill="#363535" transform="translate(178,237)"/>
<path d="M0 0 C3.91211733 1.15585285 6.8745041 2.35534962 10 5 C9.29875 4.855625 8.5975 4.71125 7.875 4.5625 C4.92443859 3.98521625 1.96729849 3.48304859 -1 3 C-0.67 2.01 -0.34 1.02 0 0 Z " fill="#383536" transform="translate(282,329)"/>
<path d="M0 0 C0.66 0 1.32 0 2 0 C1.29445932 3.66881155 -0.27735506 6.70450534 -2 10 C-2.99 9.67 -3.98 9.34 -5 9 C-3.35 6.03 -1.7 3.06 0 0 Z " fill="#363133" transform="translate(256,323)"/>
<path d="M0 0 C0.66 0 1.32 0 2 0 C2.66 1.65 3.32 3.3 4 5 C3.01 5.66 2.02 6.32 1 7 C0.34 5.02 -0.32 3.04 -1 1 C-0.67 0.67 -0.34 0.34 0 0 Z " fill="#2E2B2C" transform="translate(178,358)"/>
<path d="M0 0 C2.22825644 2.22825644 2.69239369 3.65761628 3.625 6.625 C3.88539063 7.44226563 4.14578125 8.25953125 4.4140625 9.1015625 C4.60742188 9.72804688 4.80078125 10.35453125 5 11 C4.01 10.67 3.02 10.34 2 10 C1.87625 9.030625 1.7525 8.06125 1.625 7.0625 C1.41875 6.051875 1.2125 5.04125 1 4 C0.34 3.67 -0.32 3.34 -1 3 C-0.67 2.01 -0.34 1.02 0 0 Z " fill="#444344" transform="translate(185,329)"/>
<path d="M0 0 C2.64 0.33 5.28 0.66 8 1 C7.67 1.66 7.34 2.32 7 3 C4.03 3 1.06 3 -2 3 C-1.34 2.67 -0.68 2.34 0 2 C0 1.34 0 0.68 0 0 Z " fill="#332F30" transform="translate(450,267)"/>
<path d="M0 0 C0.99 0.99 1.98 1.98 3 3 C2.34 4.65 1.68 6.3 1 8 C-0.5 6.625 -0.5 6.625 -2 5 C-2 4.34 -2 3.68 -2 3 C-1.34 3 -0.68 3 0 3 C0 2.01 0 1.02 0 0 Z " fill="#2C2A2B" transform="translate(444,376)"/>
<path d="M0 0 C0.625 1.875 0.625 1.875 1 4 C-1 6 -1 6 -3.625 6.125 C-4.40875 6.08375 -5.1925 6.0425 -6 6 C-6 5.01 -6 4.02 -6 3 C-4 3 -2 3 0 3 C0 2.01 0 1.02 0 0 Z " fill="#393738" transform="translate(374,304)"/>
<path d="M0 0 C2.89932357 2.39509338 3.50168276 4.31245243 4 8 C2.35 7.67 0.7 7.34 -1 7 C-0.67 4.69 -0.34 2.38 0 0 Z " fill="#ECECEC" transform="translate(252,264)"/>
<path d="M0 0 C0.66 0.33 1.32 0.66 2 1 C1.67 1.66 1.34 2.32 1 3 C1.99 3.33 2.98 3.66 4 4 C2.02 4.99 0.04 5.98 -2 7 C-1.125 1.125 -1.125 1.125 0 0 Z " fill="#343233" transform="translate(236,162)"/>
<path d="M0 0 C2.9375 0.375 2.9375 0.375 6 1 C6.33 1.66 6.66 2.32 7 3 C5.02 3.33 3.04 3.66 1 4 C0.67 2.68 0.34 1.36 0 0 Z " fill="#3C3A3B" transform="translate(368,284)"/>
<path d="M0 0 C0.33 0.66 0.66 1.32 1 2 C1.66 2 2.32 2 3 2 C3.33 3.65 3.66 5.3 4 7 C1.69 5.35 -0.62 3.7 -3 2 C-2.01 1.34 -1.02 0.68 0 0 Z " fill="#393738" transform="translate(331,265)"/>
<path d="M0 0 C-3.22515763 1.73662334 -6.51329166 2.8905928 -10 4 C-9.67 3.01 -9.34 2.02 -9 1 C-6.04335481 -0.4783226 -3.25770263 -0.06032783 0 0 Z " fill="#3C383A" transform="translate(294,260)"/>
<path d="M0 0 C0.33 0 0.66 0 1 0 C1.33 2.97 1.66 5.94 2 9 C0.68 9 -0.64 9 -2 9 C-1.34 6.03 -0.68 3.06 0 0 Z " fill="#3E393B" transform="translate(318,235)"/>
<path d="M0 0 C0.66 0.33 1.32 0.66 2 1 C2.625 3.0625 2.625 3.0625 3 5 C1.02 5.33 -0.96 5.66 -3 6 C-3 5.01 -3 4.02 -3 3 C-2.01 3 -1.02 3 0 3 C0 2.01 0 1.02 0 0 Z " fill="#201A1C" transform="translate(213,177)"/>
<path d="M0 0 C2 3 2 3 1.625 5.6875 C1.41875 6.450625 1.2125 7.21375 1 8 C0.01 7.01 -0.98 6.02 -2 5 C-1.34 3.35 -0.68 1.7 0 0 Z " fill="#3D3B3C" transform="translate(238,432)"/>
<path d="M0 0 C-1.39332574 3.36720387 -2.9789286 4.9859524 -6 7 C-5.37162381 3.35541809 -4.14650034 0 0 0 Z " fill="#3C3A3B" transform="translate(212,185)"/>
<path d="M0 0 C1.32 1.65 2.64 3.3 4 5 C2.68 4.67 1.36 4.34 0 4 C0 2.68 0 1.36 0 0 Z M3 1 C4.98 1.99 4.98 1.99 7 3 C6.01 3.495 6.01 3.495 5 4 C4.34 3.67 3.68 3.34 3 3 C3 2.34 3 1.68 3 1 Z " fill="#302A2C" transform="translate(355,183)"/>
<path d="M0 0 C0.99 0.33 1.98 0.66 3 1 C4.1875 3.5625 4.1875 3.5625 5 6 C3 5 1 4 -1 3 C-0.67 2.01 -0.34 1.02 0 0 Z " fill="#EDEDED" transform="translate(186,89)"/>
<path d="M0 0 C0.66 0 1.32 0 2 0 C2.625 1.8125 2.625 1.8125 3 4 C2.01 5.485 2.01 5.485 1 7 C0.34 7 -0.32 7 -1 7 C-0.67 6.01 -0.34 5.02 0 4 C-0.33 3.01 -0.66 2.02 -1 1 C-0.67 0.67 -0.34 0.34 0 0 Z " fill="#111111" transform="translate(195,80)"/>
</svg>
